<svg xmlns="http://www.w3.org/2000/svg" viewBox="0 0 640 400" role="img" aria-label="Mineradio stage lyrics thumbnail">
  <defs>
    <linearGradient id="bg" x1="0" y1="0" x2="1" y2="1">
      <stop offset="0" stop-color="#05080d"/>
      <stop offset="0.48" stop-color="#071821"/>
      <stop offset="1" stop-color="#180b13"/>
    </linearGradient>
    <radialGradient id="sun" cx="0.5" cy="0.5" r="0.5">
      <stop offset="0" stop-color="#fff0b8" stop-opacity="0.88"/>
      <stop offset="0.28" stop-color="#ffd67a" stop-opacity="0.34"/>
      <stop offset="1" stop-color="#8fe9ff" stop-opacity="0"/>
    </radialGradient>
    <linearGradient id="cover" x1="0" y1="0" x2="1" y2="1">
      <stop offset="0" stop-color="#d6f8ff"/>
      <stop offset="0.52" stop-color="#9cffdf"/>
      <stop offset="1" stop-color="#ffd67a"/>
    </linearGradient>
    <filter id="glow" x="-40%" y="-50%" width="180%" height="200%">
      <feGaussianBlur stdDeviation="18" result="blur"/>
      <feMerge>
        <feMergeNode in="blur"/>
        <feMergeNode in="SourceGraphic"/>
      </feMerge>
    </filter>
  </defs>
  <rect width="640" height="400" rx="42" fill="url(#bg)"/>
  <path d="M42 0L188 400M184 0L318 400M592 0L426 400" stroke="#9cffdf" stroke-opacity="0.08" stroke-width="2"/>
  <circle cx="420" cy="206" r="196" fill="url(#sun)"/>
  <g opacity="0.72">
    <circle cx="330" cy="156" r="3" fill="#d6f8ff"/>
    <circle cx="382" cy="120" r="2" fill="#9cffdf"/>
    <circle cx="480" cy="136" r="2.6" fill="#fff0b8"/>
    <circle cx="546" cy="190" r="2" fill="#9cffdf"/>
    <circle cx="296" cy="244" r="2.2" fill="#fff0b8"/>
    <circle cx="522" cy="262" r="3" fill="#d6f8ff"/>
  </g>
  <g transform="translate(74 106)" filter="url(#glow)">
    <rect x="0" y="0" width="154" height="154" rx="24" fill="url(#cover)"/>
    <rect x="13" y="13" width="128" height="128" rx="18" fill="#061116" fill-opacity="0.38"/>
    <path d="M38 104C64 72 83 87 114 42" fill="none" stroke="#fff0b8" stroke-width="9" stroke-linecap="round" stroke-opacity="0.82"/>
  </g>
  <g filter="url(#glow)">
    <path d="M286 184H564" stroke="#d6f8ff" stroke-width="22" stroke-linecap="round"/>
    <path d="M286 184H462" stroke="#fff0b8" stroke-width="22" stroke-linecap="round"/>
    <path d="M318 231H530" stroke="#9cffdf" stroke-width="14" stroke-linecap="round" stroke-opacity="0.54"/>
  </g>
  <path d="M70 332H570" stroke="#ffffff" stroke-opacity="0.12" stroke-width="4" stroke-linecap="round"/>
  <path d="M70 332H398" stroke="#9cffdf" stroke-opacity="0.72" stroke-width="4" stroke-linecap="round"/>
</svg>
